# xmcd CD database file
#
# Track frame offsets:
#	150
#	17560
#	30275
#	48910
#	64809
#	83575
#	102548
#	120097
#	139090
#	142066
#	160042
#	179905
#
# Disc length: 2635 seconds
#
# Revision: 0
# Processed by: cddbd v1.5.1PL2 Copyright (c) Steve Scherf et al.
# Submitted via: CDex 1.51
#
DISCID=980a490c
DTITLE=Nitty - Player's Paradise
DYEAR=2005
DGENRE=Hip-Hop
TTITLE0=ABC
TTITLE1=Hey Bitty
TTITLE2=Nasty Girl
TTITLE3=Like That
TTITLE4=Sorry
TTITLE5=Hey Girl
TTITLE6=Wind It Up
TTITLE7=Move Your Body
TTITLE8=Player At Work
TTITLE9=Unh!
TTITLE10=Fly
TTITLE11=It's Official
EXTD=YEAR: 2005
EXTT0=
EXTT1=
EXTT2=
EXTT3=
EXTT4=
EXTT5=
EXTT6=
EXTT7=
EXTT8=
EXTT9=
EXTT10=
EXTT11=
PLAYORDER=
